<svg width="48" height="48" viewBox="0 0 48 48" fill="none" xmlns="http://www.w3.org/2000/svg">
<path d="M33.8422 33.1111H32.1294L29.3723 28.5242C29.2887 28.3849 29.1968 28.1872 29.0966 27.931H29.0632C29.0075 28.0591 28.9128 28.2568 28.7791 28.5242L25.9384 33.1111H24.2172L28.2276 27.0871L24.5347 21.13H26.2559L28.7039 25.3409C28.8654 25.6194 29.0075 25.8979 29.13 26.1764H29.1634C29.3417 25.8088 29.4976 25.5192 29.6313 25.3075L32.1796 21.13H33.7921L30.024 27.0704L33.8422 33.1111Z" fill="black"/>
<path d="M17.2778 26.9444L17.8889 26.3333L20.3334 30L24.0001 19H31.3334" stroke="black" stroke-width="0.916667"/>
<path d="M18.5234 17.8008C18.5234 17.543 18.4824 17.3184 18.4004 17.127C18.3223 16.9355 18.2129 16.7773 18.0723 16.6523C17.9355 16.5234 17.7734 16.4277 17.5859 16.3652C17.3984 16.3027 17.1953 16.2715 16.9766 16.2715C16.7891 16.2715 16.6055 16.2969 16.4258 16.3477C16.2461 16.3984 16.0703 16.4688 15.8984 16.5586C15.7305 16.6484 15.5664 16.7559 15.4062 16.8809C15.25 17.0059 15.1035 17.1445 14.9668 17.2969V16.2656C15.2363 16.0039 15.5371 15.8047 15.8691 15.668C16.2051 15.5273 16.6133 15.457 17.0938 15.457C17.4375 15.457 17.7559 15.5078 18.0488 15.6094C18.3418 15.707 18.5957 15.8516 18.8105 16.043C19.0254 16.2344 19.1934 16.4707 19.3145 16.752C19.4395 17.0332 19.502 17.3555 19.502 17.7188C19.502 18.0508 19.4629 18.3516 19.3848 18.6211C19.3105 18.8906 19.1953 19.1445 19.0391 19.3828C18.8867 19.6211 18.6934 19.8496 18.459 20.0684C18.2246 20.2871 17.9492 20.5098 17.6328 20.7363C17.2383 21.0176 16.9121 21.2578 16.6543 21.457C16.4004 21.6562 16.1973 21.8438 16.0449 22.0195C15.8965 22.1914 15.791 22.3652 15.7285 22.541C15.6699 22.7129 15.6406 22.9121 15.6406 23.1387H19.8242V24H14.6387V23.584C14.6387 23.2246 14.6777 22.9082 14.7559 22.6348C14.834 22.3613 14.9629 22.1016 15.1426 21.8555C15.3223 21.6094 15.5566 21.3633 15.8457 21.1172C16.1387 20.8711 16.4961 20.5938 16.918 20.2852C17.2227 20.0664 17.4766 19.8574 17.6797 19.6582C17.8867 19.459 18.0527 19.2598 18.1777 19.0605C18.3027 18.8613 18.3906 18.6602 18.4414 18.457C18.4961 18.25 18.5234 18.0312 18.5234 17.8008Z" fill="black"/>
</svg>
