<svg width="48" height="48" viewBox="0 0 48 48" fill="none" xmlns="http://www.w3.org/2000/svg">
<path d="M25.2031 33H23.6016L21.0234 28.7109C20.9453 28.5807 20.8594 28.3958 20.7656 28.1562H20.7344C20.6823 28.276 20.5938 28.4609 20.4688 28.7109L17.8125 33H16.2031L19.9531 27.3672L16.5 21.7969H18.1094L20.3984 25.7344C20.5495 25.9948 20.6823 26.2552 20.7969 26.5156H20.8281C20.9948 26.1719 21.1406 25.901 21.2656 25.7031L23.6484 21.7969H25.1562L21.6328 27.3516L25.2031 33Z" fill="black"/>
<path d="M30.5234 17.8008C30.5234 17.543 30.4824 17.3184 30.4004 17.127C30.3223 16.9355 30.2129 16.7773 30.0723 16.6523C29.9355 16.5234 29.7734 16.4277 29.5859 16.3652C29.3984 16.3027 29.1953 16.2715 28.9766 16.2715C28.7891 16.2715 28.6055 16.2969 28.4258 16.3477C28.2461 16.3984 28.0703 16.4688 27.8984 16.5586C27.7305 16.6484 27.5664 16.7559 27.4062 16.8809C27.25 17.0059 27.1035 17.1445 26.9668 17.2969V16.2656C27.2363 16.0039 27.5371 15.8047 27.8691 15.668C28.2051 15.5273 28.6133 15.457 29.0938 15.457C29.4375 15.457 29.7559 15.5078 30.0488 15.6094C30.3418 15.707 30.5957 15.8516 30.8105 16.043C31.0254 16.2344 31.1934 16.4707 31.3145 16.752C31.4395 17.0332 31.502 17.3555 31.502 17.7188C31.502 18.0508 31.4629 18.3516 31.3848 18.6211C31.3105 18.8906 31.1953 19.1445 31.0391 19.3828C30.8867 19.6211 30.6934 19.8496 30.459 20.0684C30.2246 20.2871 29.9492 20.5098 29.6328 20.7363C29.2383 21.0176 28.9121 21.2578 28.6543 21.457C28.4004 21.6562 28.1973 21.8438 28.0449 22.0195C27.8965 22.1914 27.791 22.3652 27.7285 22.541C27.6699 22.7129 27.6406 22.9121 27.6406 23.1387H31.8242V24H26.6387V23.584C26.6387 23.2246 26.6777 22.9082 26.7559 22.6348C26.834 22.3613 26.9629 22.1016 27.1426 21.8555C27.3223 21.6094 27.5566 21.3633 27.8457 21.1172C28.1387 20.8711 28.4961 20.5938 28.918 20.2852C29.2227 20.0664 29.4766 19.8574 29.6797 19.6582C29.8867 19.459 30.0527 19.2598 30.1777 19.0605C30.3027 18.8613 30.3906 18.6602 30.4414 18.457C30.4961 18.25 30.5234 18.0312 30.5234 17.8008Z" fill="black"/>
</svg>
