<svg width="48" height="48" viewBox="0 0 48 48" fill="none" xmlns="http://www.w3.org/2000/svg">
<path d="M25.2031 33H23.6016L21.0234 28.7109C20.9453 28.5807 20.8594 28.3958 20.7656 28.1562H20.7344C20.6823 28.276 20.5938 28.4609 20.4688 28.7109L17.8125 33H16.2031L19.9531 27.3672L16.5 21.7969H18.1094L20.3984 25.7344C20.5495 25.9948 20.6823 26.2552 20.7969 26.5156H20.8281C20.9948 26.1719 21.1406 25.901 21.2656 25.7031L23.6484 21.7969H25.1562L21.6328 27.3516L25.2031 33Z" fill="black"/>
<path d="M31.584 21.6211C31.584 22 31.5117 22.3457 31.3672 22.6582C31.2266 22.9668 31.0254 23.2324 30.7637 23.4551C30.5059 23.6738 30.1953 23.8438 29.832 23.9648C29.4688 24.0859 29.0684 24.1465 28.6309 24.1465C27.8301 24.1465 27.1934 23.9941 26.7207 23.6895V22.6582C27.2871 23.1035 27.9355 23.3262 28.666 23.3262C28.959 23.3262 29.2227 23.2891 29.457 23.2148C29.6953 23.1406 29.8984 23.0332 30.0664 22.8926C30.2383 22.752 30.3691 22.582 30.459 22.3828C30.5527 22.1836 30.5996 21.959 30.5996 21.709C30.5996 20.6113 29.8184 20.0625 28.2559 20.0625H27.5586V19.248H28.2207C29.6035 19.248 30.2949 18.7324 30.2949 17.7012C30.2949 16.748 29.7676 16.2715 28.7129 16.2715C28.1191 16.2715 27.5625 16.4707 27.043 16.8691V15.9375C27.5781 15.6172 28.2148 15.457 28.9531 15.457C29.3047 15.457 29.623 15.5059 29.9082 15.6035C30.1934 15.7012 30.4375 15.8379 30.6406 16.0137C30.8438 16.1895 31 16.4004 31.1094 16.6465C31.2227 16.8926 31.2793 17.1641 31.2793 17.4609C31.2793 18.5664 30.7207 19.2773 29.6035 19.5938V19.6172C29.8887 19.6484 30.1523 19.7188 30.3945 19.8281C30.6367 19.9336 30.8457 20.0723 31.0215 20.2441C31.1973 20.416 31.334 20.6191 31.4316 20.8535C31.5332 21.084 31.584 21.3398 31.584 21.6211Z" fill="black"/>
</svg>
