<svg width="48" height="48" viewBox="0 0 48 48" fill="none" xmlns="http://www.w3.org/2000/svg">
<path d="M33.2031 36H31.6016L29.0234 31.7109C28.9453 31.5807 28.8594 31.3958 28.7656 31.1562H28.7344C28.6823 31.276 28.5938 31.4609 28.4688 31.7109L25.8125 36H24.2031L27.9531 30.3672L24.5 24.7969H26.1094L28.3984 28.7344C28.5495 28.9948 28.6823 29.2552 28.7969 29.5156H28.8281C28.9948 29.1719 29.1406 28.901 29.2656 28.7031L31.6484 24.7969H33.1562L29.6328 30.3516L33.2031 36Z" fill="black"/>
<path d="M26.7178 17.4264L19.7136 29.7142L19.0126 29.5124L25.9914 17.2172L26.7178 17.4264Z" fill="black"/>
<path d="M19.5957 24H18.5547V16.1353C18.4743 16.2157 18.3558 16.3088 18.1992 16.4146C18.0469 16.5161 17.8734 16.6177 17.6787 16.7192C17.4883 16.8208 17.2852 16.916 17.0693 17.0049C16.8577 17.0938 16.6504 17.1636 16.4473 17.2144V16.1606C16.6758 16.0972 16.917 16.0125 17.1709 15.9067C17.429 15.7967 17.6808 15.6761 17.9263 15.5449C18.1759 15.4095 18.4108 15.2699 18.6309 15.126C18.8509 14.9779 19.0413 14.834 19.2021 14.6943H19.5957V24Z" fill="black"/>
</svg>
