<svg width="48" height="48" viewBox="0 0 48 48" fill="none" xmlns="http://www.w3.org/2000/svg">
<path d="M32.5625 32.9922H29.4531V32.6172C29.6615 32.6068 29.7656 32.526 29.7656 32.375C29.7656 32.3281 29.7474 32.2734 29.7109 32.2109L27.4609 28.4531C26.2734 30.0052 25.6797 31.1302 25.6797 31.8281C25.6797 32.3438 26.0312 32.6068 26.7344 32.6172V32.9922H23.0234V32.6172C23.7057 32.5599 24.4714 31.9375 25.3203 30.75L27.2344 28.0703L25.5 25.1719C24.8125 24.026 24.151 23.4271 23.5156 23.375V23H26.5625V23.375C26.3542 23.3854 26.25 23.4505 26.25 23.5703C26.25 23.612 26.2604 23.651 26.2812 23.6875L28.1562 26.8125C29.0729 25.526 29.5312 24.6354 29.5312 24.1406C29.5312 23.6406 29.1354 23.3854 28.3438 23.375V23H32.0859V23.375C31.3672 23.4792 30.6068 24.0781 29.8047 25.1719L28.3438 27.1641L30.8359 31.2578C31.1745 31.8151 31.5495 32.2031 31.9609 32.4219C32.1172 32.5104 32.3177 32.5755 32.5625 32.6172V32.9922Z" fill="black"/>
<path d="M25.7178 16.4264L18.7136 28.7142L18.0126 28.5124L24.9914 16.2172L25.7178 16.4264Z" fill="black"/>
<path d="M19.1328 23.2441H16.0391V22.9629H16.3262C16.8457 22.9629 17.1055 22.7148 17.1055 22.2188V17.0039C17.1055 16.6641 16.957 16.4941 16.6602 16.4941C16.5234 16.4941 16.1992 16.584 15.6875 16.7637V16.4766L18.541 15.4805V15.7148C18.2168 15.8047 18.0547 16.0312 18.0547 16.3945V22.1191C18.0547 22.6816 18.3184 22.9629 18.8457 22.9629H19.1328V23.2441Z" fill="black"/>
</svg>
