<svg width="48" height="48" viewBox="0 0 48 48" fill="none" xmlns="http://www.w3.org/2000/svg">
<path d="M27.3672 28.1182H24.6465V27.79C24.8288 27.7809 24.9199 27.7103 24.9199 27.5781C24.9199 27.5371 24.904 27.4893 24.8721 27.4346L22.9033 24.1465C21.8643 25.5046 21.3447 26.4889 21.3447 27.0996C21.3447 27.5508 21.6523 27.7809 22.2676 27.79V28.1182H19.0205V27.79C19.6175 27.7399 20.2874 27.1953 21.0303 26.1562L22.7051 23.8115L21.1875 21.2754C20.5859 20.2728 20.0072 19.7487 19.4512 19.7031V19.375H22.1172V19.7031C21.9349 19.7122 21.8438 19.7692 21.8438 19.874C21.8438 19.9105 21.8529 19.9447 21.8711 19.9766L23.5117 22.7109C24.3138 21.5853 24.7148 20.806 24.7148 20.373C24.7148 19.9355 24.3685 19.7122 23.6758 19.7031V19.375H26.9502V19.7031C26.3213 19.7943 25.6559 20.3184 24.9541 21.2754L23.6758 23.0186L25.8564 26.6006C26.1527 27.0882 26.4808 27.4277 26.8408 27.6191C26.9775 27.6966 27.153 27.7536 27.3672 27.79V28.1182Z" fill="black"/>
<path d="M13.5 24.5L14 24L16 27L19 18H25" stroke="black" stroke-width="0.75"/>
<path d="M16.0586 19.4453L15.6367 21.5195H15.3613V21.4492C15.3613 21.3125 15.291 21.2441 15.1504 21.2441H10.5742V20.9629L12.2852 18.9004C13.4531 17.4902 14.1602 16.4805 14.4062 15.8711C14.5508 15.5117 14.623 15.2109 14.623 14.9688C14.623 14.6602 14.5234 14.4023 14.3242 14.1953C14.1289 13.9844 13.8789 13.8789 13.5742 13.8789C13.043 13.8789 12.5938 14.1484 12.2266 14.6875C11.9141 15.1445 11.7344 15.6602 11.6875 16.2344H11.2832V14.4531C12.2207 13.8711 13.0996 13.5801 13.9199 13.5801C14.4199 13.5801 14.8398 13.6973 15.1797 13.9316C15.5664 14.2012 15.7598 14.5742 15.7598 15.0508C15.7598 15.5469 15.5488 16.0684 15.127 16.6152C14.9512 16.8379 14.5527 17.2578 13.9316 17.875L11.4414 20.3359H14.7461C15.332 20.3359 15.6758 20.0391 15.7773 19.4453H16.0586Z" fill="black"/>
</svg>
