<svg width="48" height="48" viewBox="0 0 48 48" fill="none" xmlns="http://www.w3.org/2000/svg">
<path d="M28.5625 29.9922H25.4531V29.6172C25.6615 29.6068 25.7656 29.526 25.7656 29.375C25.7656 29.3281 25.7474 29.2734 25.7109 29.2109L23.4609 25.4531C22.2734 27.0052 21.6797 28.1302 21.6797 28.8281C21.6797 29.3438 22.0312 29.6068 22.7344 29.6172V29.9922H19.0234V29.6172C19.7057 29.5599 20.4714 28.9375 21.3203 27.75L23.2344 25.0703L21.5 22.1719C20.8125 21.026 20.151 20.4271 19.5156 20.375V20H22.5625V20.375C22.3542 20.3854 22.25 20.4505 22.25 20.5703C22.25 20.612 22.2604 20.651 22.2812 20.6875L24.1562 23.8125C25.0729 22.526 25.5312 21.6354 25.5312 21.1406C25.5312 20.6406 25.1354 20.3854 24.3438 20.375V20H28.0859V20.375C27.3672 20.4792 26.6068 21.0781 25.8047 22.1719L24.3438 24.1641L26.8359 28.2578C27.1745 28.8151 27.5495 29.2031 27.9609 29.4219C28.1172 29.5104 28.3177 29.5755 28.5625 29.6172V29.9922Z" fill="black"/>
<path d="M35.0586 19.4453L34.6367 21.5195H34.3613V21.4492C34.3613 21.3125 34.291 21.2441 34.1504 21.2441H29.5742V20.9629L31.2852 18.9004C32.4531 17.4902 33.1602 16.4805 33.4062 15.8711C33.5508 15.5117 33.623 15.2109 33.623 14.9688C33.623 14.6602 33.5234 14.4023 33.3242 14.1953C33.1289 13.9844 32.8789 13.8789 32.5742 13.8789C32.043 13.8789 31.5938 14.1484 31.2266 14.6875C30.9141 15.1445 30.7344 15.6602 30.6875 16.2344H30.2832V14.4531C31.2207 13.8711 32.0996 13.5801 32.9199 13.5801C33.4199 13.5801 33.8398 13.6973 34.1797 13.9316C34.5664 14.2012 34.7598 14.5742 34.7598 15.0508C34.7598 15.5469 34.5488 16.0684 34.127 16.6152C33.9512 16.8379 33.5527 17.2578 32.9316 17.875L30.4414 20.3359H33.7461C34.332 20.3359 34.6758 20.0391 34.7773 19.4453H35.0586Z" fill="black"/>
</svg>
