<svg width="48" height="48" viewBox="0 0 48 48" fill="none" xmlns="http://www.w3.org/2000/svg">
<path d="M34.2266 32.0333H30.9013V31.6323C31.1241 31.6211 31.2355 31.5348 31.2355 31.3733C31.2355 31.3231 31.216 31.2647 31.177 31.1978L28.7707 27.179C27.5008 28.8389 26.8658 30.042 26.8658 30.7884C26.8658 31.3398 27.2418 31.6211 27.9937 31.6323V32.0333H24.0251V31.6323C24.7547 31.571 25.5735 30.9054 26.4814 29.6354L28.5284 26.7696L26.6736 23.6699C25.9384 22.4445 25.231 21.804 24.5514 21.7483V21.3472H27.8099V21.7483C27.5871 21.7594 27.4757 21.829 27.4757 21.9571C27.4757 22.0017 27.4868 22.0435 27.5091 22.0825L29.5143 25.4245C30.4946 24.0487 30.9848 23.0962 30.9848 22.5671C30.9848 22.0323 30.5615 21.7594 29.7148 21.7483V21.3472H33.7169V21.7483C32.9482 21.8597 32.135 22.5002 31.2772 23.6699L29.7148 25.8005L32.3801 30.1785C32.7422 30.7745 33.1432 31.1895 33.5832 31.4234C33.7503 31.5181 33.9648 31.5877 34.2266 31.6323V32.0333Z" fill="black"/>
<path d="M17.2778 26.9444L17.8889 26.3333L20.3334 30L24.0001 19H31.3334" stroke="black" stroke-width="0.916667"/>
<path d="M20.4049 20.8776L19.8893 23.4128H19.5527V23.3268C19.5527 23.1597 19.4668 23.0762 19.2949 23.0762H13.7018V22.7324L15.793 20.2116C17.2205 18.4881 18.0846 17.2539 18.3854 16.5091C18.5621 16.0699 18.6504 15.7023 18.6504 15.4063C18.6504 15.0291 18.5286 14.714 18.2852 14.4609C18.0464 14.2031 17.7409 14.0742 17.3685 14.0742C16.7192 14.0742 16.1701 14.4036 15.7214 15.0625C15.3394 15.6211 15.1198 16.2513 15.0625 16.9531H14.5684V14.776C15.7142 14.0647 16.7884 13.709 17.791 13.709C18.4021 13.709 18.9154 13.8522 19.3307 14.1387C19.8034 14.4681 20.0397 14.924 20.0397 15.5065C20.0397 16.1128 19.7819 16.7502 19.2663 17.4186C19.0514 17.6908 18.5645 18.204 17.8053 18.9583L14.7617 21.9661H18.8008C19.5169 21.9661 19.9371 21.6033 20.0612 20.8776H20.4049Z" fill="black"/>
</svg>
