<svg width="49" height="48" viewBox="0 0 49 48" fill="none" xmlns="http://www.w3.org/2000/svg">
<path d="M30.0417 26.7922L28.9254 27.8889L26.0833 25.0967L23.2413 27.8889L22.125 26.7922L24.9671 24L22.125 21.2078L23.2413 20.1111L26.0833 22.9033L28.9254 20.1111L30.0417 21.2078L27.1996 24L30.0417 26.7922ZM32.4167 17C32.8366 17 33.2393 17.1639 33.5363 17.4556C33.8332 17.7473 34 18.143 34 18.5556V29.4444C34 29.857 33.8332 30.2527 33.5363 30.5444C33.2393 30.8361 32.8366 31 32.4167 31H20.5417C19.9954 31 19.5679 30.72 19.2829 30.3078L15 24L19.2829 17.6844C19.5679 17.2722 19.9954 17 20.5417 17H32.4167ZM32.4167 18.5556H20.5417L16.805 24L20.5417 29.4444H32.4167V18.5556Z" fill="black"/>
</svg>
