<svg width="48" height="48" viewBox="0 0 48 48" fill="none" xmlns="http://www.w3.org/2000/svg">
<path d="M29.4181 26.7922L28.3019 27.8889L25.4598 25.0967L22.6177 27.8889L21.5015 26.7922L24.3435 24L21.5015 21.2078L22.6177 20.1111L25.4598 22.9033L28.3019 20.1111L29.4181 21.2078L26.576 24L29.4181 26.7922ZM31.7931 17C32.2131 17 32.6158 17.1639 32.9127 17.4556C33.2097 17.7473 33.3765 18.143 33.3765 18.5556V29.4444C33.3765 29.857 33.2097 30.2527 32.9127 30.5444C32.6158 30.8361 32.2131 31 31.7931 31H19.9181C19.3719 31 18.9444 30.72 18.6594 30.3078L14.3765 24L18.6594 17.6844C18.9444 17.2722 19.3719 17 19.9181 17H31.7931ZM31.7931 18.5556H19.9181L16.1815 24L19.9181 29.4444H31.7931V18.5556Z" fill="white"/>
</svg>
