<svg width="48" height="48" viewBox="0 0 48 48" fill="none" xmlns="http://www.w3.org/2000/svg">
<path d="M28.6667 31L22.3333 24.6667V15.6667H25.6667V23.3333L31 28.6667L28.6667 31ZM24 39C20.1667 39 16.8267 37.7289 13.98 35.1867C11.1322 32.6456 9.5 29.4722 9.08333 25.6667H12.5C12.8889 28.5556 14.1733 30.9444 16.3533 32.8333C18.5344 34.7222 21.0833 35.6667 24 35.6667C27.25 35.6667 30.0067 34.5344 32.27 32.27C34.5344 30.0067 35.6667 27.25 35.6667 24C35.6667 20.75 34.5344 17.9928 32.27 15.7283C30.0067 13.465 27.25 12.3333 24 12.3333C22.0833 12.3333 20.2917 12.7778 18.625 13.6667C16.9583 14.5556 15.5556 15.7778 14.4167 17.3333H19V20.6667H9V10.6667H12.3333V14.5833C13.75 12.8056 15.4794 11.4306 17.5217 10.4583C19.5628 9.48611 21.7222 9 24 9C26.0833 9 28.035 9.39556 29.855 10.1867C31.6739 10.9789 33.2572 12.0483 34.605 13.395C35.9517 14.7428 37.0211 16.3261 37.8133 18.145C38.6044 19.965 39 21.9167 39 24C39 26.0833 38.6044 28.0344 37.8133 29.8533C37.0211 31.6733 35.9517 33.2567 34.605 34.6033C33.2572 35.9511 31.6739 37.0211 29.855 37.8133C28.035 38.6044 26.0833 39 24 39Z" fill="black"/>
</svg>
