<svg width="48" height="48" viewBox="0 0 48 48" fill="none" xmlns="http://www.w3.org/2000/svg">
<path d="M26.4889 27.7333L23.1111 24.3556V19.5556H24.8889V23.6444L27.7333 26.4889L26.4889 27.7333ZM24 32C21.9556 32 20.1742 31.3221 18.656 29.9662C17.1372 28.611 16.2667 26.9185 16.0444 24.8889H17.8667C18.0741 26.4296 18.7591 27.7037 19.9218 28.7111C21.085 29.7185 22.4444 30.2222 24 30.2222C25.7333 30.2222 27.2036 29.6184 28.4107 28.4107C29.6184 27.2036 30.2222 25.7333 30.2222 24C30.2222 22.2667 29.6184 20.7961 28.4107 19.5884C27.2036 18.3813 25.7333 17.7778 24 17.7778C22.9778 17.7778 22.0222 18.0148 21.1333 18.4889C20.2444 18.963 19.4963 19.6148 18.8889 20.4444H21.3333V22.2222H16V16.8889H17.7778V18.9778C18.5333 18.0296 19.4557 17.2963 20.5449 16.7778C21.6335 16.2593 22.7852 16 24 16C25.1111 16 26.152 16.211 27.1227 16.6329C28.0927 17.0554 28.9372 17.6258 29.656 18.344C30.3742 19.0628 30.9446 19.9073 31.3671 20.8773C31.789 21.848 32 22.8889 32 24C32 25.1111 31.789 26.1517 31.3671 27.1218C30.9446 28.0924 30.3742 28.9369 29.656 29.6551C28.9372 30.3739 28.0927 30.9446 27.1227 31.3671C26.152 31.789 25.1111 32 24 32Z" fill="black"/>
</svg>
